<svg width="16" height="16" viewBox="0 0 16 16" fill="none" xmlns="http://www.w3.org/2000/svg">
<path d="M8 1C4.13438 1 1 4.13438 1 8C1 11.8656 4.13438 15 8 15C11.8656 15 15 11.8656 15 8C15 4.13438 11.8656 1 8 1ZM8 13.8125C4.79063 13.8125 2.1875 11.2094 2.1875 8C2.1875 4.79063 4.79063 2.1875 8 2.1875C11.2094 2.1875 13.8125 4.79063 13.8125 8C13.8125 11.2094 11.2094 13.8125 8 13.8125ZM9.83906 4.61562C9.59063 4.56094 9.30156 4.53125 8.975 4.53125C7.30781 4.53125 6.17969 5.40156 5.87187 6.87344H5.375C5.30625 6.87344 5.25 6.92969 5.25 6.99844V7.42344C5.25 7.49219 5.30625 7.54844 5.375 7.54844H5.7875C5.78281 7.6125 5.78281 7.67969 5.78281 7.74844V8.325H5.375C5.30625 8.325 5.25 8.38125 5.25 8.45V8.875C5.25 8.94375 5.30625 9 5.375 9H5.84688C6.11563 10.55 7.25938 11.4688 8.975 11.4688C9.30156 11.4688 9.59063 11.4422 9.83906 11.3891C9.89688 11.3766 9.93906 11.3266 9.93906 11.2672V10.5984C9.93906 10.5203 9.86719 10.4609 9.79062 10.4766C9.56094 10.5203 9.29219 10.5406 8.98125 10.5406C7.91094 10.5406 7.19219 9.96875 6.95312 9H8.99375C9.0625 9 9.11875 8.94375 9.11875 8.875V8.45C9.11875 8.38125 9.0625 8.325 8.99375 8.325H6.8625V7.7625C6.8625 7.68906 6.8625 7.61563 6.86719 7.54688H8.99063C9.05938 7.54688 9.11563 7.49063 9.11563 7.42188V6.99687C9.11563 6.92812 9.05938 6.87187 8.99063 6.87187H6.98594C7.25469 5.98281 7.95938 5.45937 8.97969 5.45937C9.29063 5.45937 9.55938 5.48281 9.7875 5.52812C9.80561 5.53182 9.82432 5.53146 9.84227 5.52705C9.86023 5.52265 9.87698 5.51432 9.89133 5.50267C9.90567 5.49101 9.91726 5.47631 9.92524 5.45964C9.93322 5.44297 9.93741 5.42474 9.9375 5.40625V4.7375C9.9375 4.67813 9.89688 4.62812 9.83906 4.61562Z" fill="#FFD700"/>
</svg>
