<svg width="83" height="10" viewBox="0 0 83 10" fill="none" xmlns="http://www.w3.org/2000/svg">
<path d="M0 9.58398V0.129439H2.56676V7.5158H6.38921V9.58398H0ZM15.6177 4.85671C15.6177 5.90927 15.413 6.79717 15.0037 7.52042C14.5944 8.24059 14.0419 8.78687 13.3464 9.15927C12.6508 9.52859 11.8753 9.71325 11.0197 9.71325C10.1579 9.71325 9.37929 9.52705 8.68374 9.15465C7.99126 8.77918 7.44036 8.23136 7.03104 7.51119C6.62479 6.78794 6.42166 5.90311 6.42166 4.85671C6.42166 3.80415 6.62479 2.91779 7.03104 2.19762C7.44036 1.47437 7.99126 0.928089 8.68374 0.558771C9.37929 0.186375 10.1579 0.000177205 11.0197 0.000177205C11.8753 0.000177205 12.6508 0.186375 13.3464 0.558771C14.0419 0.928089 14.5944 1.47437 15.0037 2.19762C15.413 2.91779 15.6177 3.80415 15.6177 4.85671ZM12.9771 4.85671C12.9771 4.29042 12.9017 3.81339 12.7509 3.4256C12.6031 3.03474 12.3831 2.73929 12.0907 2.53924C11.8014 2.33611 11.4444 2.23455 11.0197 2.23455C10.595 2.23455 10.2364 2.33611 9.94403 2.53924C9.65474 2.73929 9.43468 3.03474 9.28388 3.4256C9.13615 3.81339 9.06229 4.29042 9.06229 4.85671C9.06229 5.423 9.13615 5.90157 9.28388 6.29244C9.43468 6.68022 9.65474 6.97567 9.94403 7.1788C10.2364 7.37885 10.595 7.47887 11.0197 7.47887C11.4444 7.47887 11.8014 7.37885 12.0907 7.1788C12.3831 6.97567 12.6031 6.68022 12.7509 6.29244C12.9017 5.90157 12.9771 5.423 12.9771 4.85671ZM25.032 3.67489H22.4283C22.4098 3.45946 22.3606 3.26403 22.2806 3.0886C22.2036 2.91317 22.0959 2.76237 21.9574 2.63619C21.822 2.50692 21.6573 2.40844 21.4634 2.34073C21.2695 2.26995 21.0495 2.23455 20.8033 2.23455C20.3724 2.23455 20.0077 2.33919 19.7092 2.54847C19.4137 2.75775 19.1891 3.05782 19.0352 3.44869C18.8844 3.83955 18.809 4.30889 18.809 4.85671C18.809 5.43531 18.8859 5.92004 19.0398 6.3109C19.1967 6.69869 19.423 6.99106 19.7184 7.18803C20.0139 7.38192 20.3693 7.47887 20.7848 7.47887C21.0218 7.47887 21.2342 7.44963 21.4219 7.39116C21.6096 7.3296 21.7727 7.24189 21.9112 7.12802C22.0497 7.01415 22.1621 6.87719 22.2482 6.71715C22.3375 6.55404 22.3975 6.37092 22.4283 6.16779L25.032 6.18626C25.0012 6.58635 24.8889 6.99414 24.695 7.40962C24.5011 7.82203 24.2256 8.20366 23.8686 8.55451C23.5147 8.90228 23.0761 9.18235 22.5529 9.39471C22.0297 9.60707 21.4219 9.71325 20.7294 9.71325C19.8615 9.71325 19.0829 9.52705 18.3935 9.15465C17.7072 8.78226 17.164 8.23443 16.7639 7.51119C16.3668 6.78794 16.1683 5.90311 16.1683 4.85671C16.1683 3.80415 16.3715 2.91779 16.7777 2.19762C17.184 1.47437 17.7318 0.928089 18.4212 0.558771C19.1106 0.186375 19.88 0.000177205 20.7294 0.000177205C21.3265 0.000177205 21.8758 0.0817349 22.3775 0.24485C22.8792 0.407966 23.3193 0.646484 23.6978 0.960404C24.0764 1.27125 24.3811 1.65442 24.6119 2.10991C24.8427 2.5654 24.9827 3.08706 25.032 3.67489ZM25.5965 9.58398V0.129439H28.1632V3.95188H28.2925L31.1363 0.129439H34.1277L30.9331 4.33967L34.2016 9.58398H31.1363L29.0127 6.03853L28.1632 7.14648V9.58398H25.5965ZM34.2895 9.58398V0.129439H41.1034V2.19762H36.8562V3.82262H40.7525V5.8908H36.8562V7.5158H41.0849V9.58398H34.2895ZM45.4142 9.58398H41.7764V0.129439H45.3772C46.3498 0.129439 47.19 0.318714 47.8978 0.697266C48.6088 1.07274 49.1566 1.61441 49.5413 2.32227C49.9291 3.02705 50.123 3.87186 50.123 4.85671C50.123 5.84156 49.9306 6.68791 49.5459 7.39577C49.1612 8.10056 48.6164 8.64222 47.9117 9.02077C47.2069 9.39625 46.3744 9.58398 45.4142 9.58398ZM44.3431 7.40501H45.3218C45.7896 7.40501 46.1882 7.3296 46.5175 7.1788C46.8499 7.02799 47.1022 6.76793 47.2746 6.39861C47.45 6.0293 47.5377 5.51533 47.5377 4.85671C47.5377 4.19809 47.4485 3.68413 47.27 3.31481C47.0945 2.94549 46.836 2.68543 46.4944 2.53462C46.1559 2.38382 45.7404 2.30842 45.248 2.30842H44.3431V7.40501ZM55.2672 0.129439V9.58398H52.7004V0.129439H55.2672ZM64.064 0.129439V9.58398H61.9219L58.5058 4.61665H58.4504V9.58398H55.8836V0.129439H58.0626L61.4234 5.0783H61.4972V0.129439H64.064Z" fill="white"/>
<path d="M66.668 9.58398V0.129439H69.2347V7.5158H73.0572V9.58398H66.668ZM76.2461 0.129439L77.7973 2.88086H77.8711L79.4408 0.129439H82.303L79.4777 4.85671L82.4138 9.58398H79.4777L77.8711 6.77717H77.7973L76.1908 9.58398H73.2731L76.1723 4.85671L73.3655 0.129439H76.2461Z" fill="#85144B"/>
</svg>
