<svg width="161" height="16" viewBox="0 0 161 16" fill="none" xmlns="http://www.w3.org/2000/svg">
<path d="M0 15.4814V0.208718H4.14631V12.1405H10.321V15.4814H0ZM27.6978 7.84508C27.6978 9.54537 27.3672 10.9797 26.706 12.148C26.0447 13.3113 25.1523 14.1938 24.0288 14.7954C22.9052 15.392 21.6523 15.6903 20.2702 15.6903C18.8782 15.6903 17.6204 15.3895 16.4968 14.7879C15.3782 14.1814 14.4883 13.2964 13.8271 12.1331C13.1708 10.9648 12.8427 9.53542 12.8427 7.84508C12.8427 6.1448 13.1708 4.71298 13.8271 3.54963C14.4883 2.3813 15.3782 1.49885 16.4968 0.902254C17.6204 0.300692 18.8782 -8.93474e-05 20.2702 -8.93474e-05C21.6523 -8.93474e-05 22.9052 0.300692 24.0288 0.902254C25.1523 1.49885 26.0447 2.3813 26.706 3.54963C27.3672 4.71298 27.6978 6.1448 27.6978 7.84508ZM23.4322 7.84508C23.4322 6.93031 23.3104 6.15971 23.0668 5.53329C22.8281 4.9019 22.4727 4.42463 22.0004 4.10147C21.533 3.77335 20.9563 3.60929 20.2702 3.60929C19.5842 3.60929 19.005 3.77335 18.5327 4.10147C18.0653 4.42463 17.7099 4.9019 17.4663 5.53329C17.2276 6.15971 17.1083 6.93031 17.1083 7.84508C17.1083 8.75985 17.2276 9.53294 17.4663 10.1643C17.7099 10.7907 18.0653 11.268 18.5327 11.5961C19.005 11.9193 19.5842 12.0809 20.2702 12.0809C20.9563 12.0809 21.533 11.9193 22.0004 11.5961C22.4727 11.268 22.8281 10.7907 23.0668 10.1643C23.3104 9.53294 23.4322 8.75985 23.4322 7.84508ZM45.3747 5.93599H41.1688C41.1389 5.58798 41.0594 5.27228 40.9301 4.9889C40.8058 4.70552 40.6318 4.46191 40.4081 4.25808C40.1894 4.04927 39.9234 3.89018 39.6102 3.78081C39.297 3.66646 38.9415 3.60929 38.5438 3.60929C37.8477 3.60929 37.2586 3.77832 36.7764 4.11639C36.2991 4.45446 35.9362 4.93919 35.6876 5.57058C35.444 6.20197 35.3222 6.96014 35.3222 7.84508C35.3222 8.77974 35.4465 9.56277 35.695 10.1942C35.9486 10.8206 36.314 11.2929 36.7913 11.6111C37.2686 11.9243 37.8428 12.0809 38.5139 12.0809C38.8968 12.0809 39.2398 12.0336 39.5431 11.9392C39.8463 11.8398 40.1098 11.6981 40.3335 11.5141C40.5573 11.3302 40.7387 11.1089 40.8779 10.8504C41.0221 10.5869 41.1191 10.2911 41.1688 9.96298L45.3747 9.99281C45.325 10.6391 45.1436 11.2979 44.8303 11.969C44.5171 12.6352 44.0722 13.2517 43.4955 13.8184C42.9237 14.3802 42.2153 14.8327 41.3701 15.1757C40.5249 15.5187 39.5431 15.6903 38.4244 15.6903C37.0225 15.6903 35.7646 15.3895 34.651 14.7879C33.5423 14.1863 32.6649 13.3014 32.0186 12.1331C31.3772 10.9648 31.0566 9.53542 31.0566 7.84508C31.0566 6.1448 31.3847 4.71298 32.0409 3.54963C32.6972 2.3813 33.5821 1.49885 34.6958 0.902254C35.8094 0.300692 37.0523 -8.93474e-05 38.4244 -8.93474e-05C39.3889 -8.93474e-05 40.2764 0.131658 41.0867 0.395152C41.8971 0.658647 42.608 1.04394 43.2195 1.55105C43.8311 2.05318 44.3232 2.67214 44.6961 3.40794C45.069 4.14373 45.2952 4.98642 45.3747 5.93599ZM48.7559 15.4814V0.208718H52.9022V6.38343H53.111L57.7047 0.208718H62.5371L57.3766 7.00985L62.6564 15.4814H57.7047L54.2743 9.75417L52.9022 11.5439V15.4814H48.7559ZM65.2676 15.4814V0.208718H76.2747V3.54963H69.4139V6.17463H75.7079V9.51554H69.4139V12.1405H76.2449V15.4814H65.2676ZM85.7075 15.4814H79.8311V0.208718H85.6478C87.2188 0.208718 88.5761 0.514471 89.7195 1.12598C90.868 1.73251 91.7529 2.60751 92.3744 3.75098C93.0008 4.88947 93.314 6.25417 93.314 7.84508C93.314 9.43599 93.0033 10.8032 92.3818 11.9466C91.7604 13.0851 90.8804 13.9601 89.7419 14.5716C88.6034 15.1782 87.2586 15.4814 85.7075 15.4814ZM83.9774 11.9616H85.5583C86.314 11.9616 86.9578 11.8398 87.4898 11.5961C88.0267 11.3525 88.4344 10.9324 88.7128 10.3358C88.9962 9.73926 89.1379 8.909 89.1379 7.84508C89.1379 6.78116 88.9937 5.95091 88.7053 5.35431C88.422 4.75772 88.0044 4.33762 87.4525 4.09402C86.9056 3.85041 86.2345 3.7286 85.439 3.7286H83.9774V11.9616ZM106.562 0.208718V15.4814H102.416V0.208718H106.562ZM123.242 0.208718V15.4814H119.782L114.263 7.4573H114.174V15.4814H110.027V0.208718H113.547L118.976 8.20304H119.096V0.208718H123.242Z" fill="white"/>
<path d="M132.387 15.4814V0.208718H136.533V12.1405H142.708V15.4814H132.387ZM150.328 0.208718L152.834 4.65332H152.953L155.489 0.208718H160.112L155.549 7.84508L160.291 15.4814H155.549L152.953 10.9474H152.834L150.239 15.4814H145.526L150.209 7.84508L145.675 0.208718H150.328Z" fill="#85144B"/>
</svg>
