<svg width="20" height="20" viewBox="0 0 20 20" fill="none" xmlns="http://www.w3.org/2000/svg">
<g clip-path="url(#clip0_2447_555)">
<path d="M17.0833 14.9997C17.4043 14.9998 17.713 15.1235 17.9453 15.345C18.1776 15.5665 18.3158 15.869 18.3313 16.1896C18.3467 16.5102 18.2382 16.8245 18.0282 17.0673C17.8182 17.3102 17.5228 17.4629 17.2033 17.4938L17.0833 17.4997H3.75C3.42899 17.4995 3.12034 17.3759 2.88801 17.1543C2.65568 16.9328 2.51749 16.6304 2.50206 16.3097C2.48664 15.9891 2.59516 15.6748 2.80515 15.432C3.01513 15.1892 3.31048 15.0365 3.63 15.0055L3.75 14.9997H17.0833ZM17.0833 9.16634C17.4149 9.16634 17.7328 9.29804 17.9672 9.53246C18.2016 9.76688 18.3333 10.0848 18.3333 10.4163C18.3333 10.7479 18.2016 11.0658 17.9672 11.3002C17.7328 11.5346 17.4149 11.6663 17.0833 11.6663H3.75C3.41848 11.6663 3.10054 11.5346 2.86612 11.3002C2.6317 11.0658 2.5 10.7479 2.5 10.4163C2.5 10.0848 2.6317 9.76688 2.86612 9.53246C3.10054 9.29804 3.41848 9.16634 3.75 9.16634H17.0833ZM17.0833 3.33301C17.4149 3.33301 17.7328 3.4647 17.9672 3.69912C18.2016 3.93354 18.3333 4.25149 18.3333 4.58301C18.3333 4.91453 18.2016 5.23247 17.9672 5.46689C17.7328 5.70131 17.4149 5.83301 17.0833 5.83301H3.75C3.41848 5.83301 3.10054 5.70131 2.86612 5.46689C2.6317 5.23247 2.5 4.91453 2.5 4.58301C2.5 4.25149 2.6317 3.93354 2.86612 3.69912C3.10054 3.4647 3.41848 3.33301 3.75 3.33301H17.0833Z" fill="#F4EAEA"/>
</g>
<defs>
<clipPath id="clip0_2447_555">
<rect width="20" height="20" fill="white"/>
</clipPath>
</defs>
</svg>
