<svg width="12" height="13" viewBox="0 0 12 13" fill="none" xmlns="http://www.w3.org/2000/svg">
<path d="M2.33333 0H9.66667C9.77016 0 9.87224 0.0234942 9.96481 0.0686223C10.0574 0.11375 10.1379 0.179273 10.2 0.26L12 2.6V12.35C12 12.5224 11.9298 12.6877 11.8047 12.8096C11.6797 12.9315 11.5101 13 11.3333 13H0.666667C0.489856 13 0.320286 12.9315 0.195262 12.8096C0.0702379 12.6877 0 12.5224 0 12.35V2.6L1.8 0.26C1.8621 0.179273 1.94262 0.11375 2.03519 0.0686223C2.12776 0.0234942 2.22984 0 2.33333 0ZM10.6667 3.9H1.33333V11.7H10.6667V3.9ZM10.3333 2.6L9.33333 1.3H2.66667L1.66667 2.6H10.3333ZM4 5.2V6.5C4 7.01717 4.21071 7.51316 4.58579 7.87886C4.96086 8.24455 5.46957 8.45 6 8.45C6.53043 8.45 7.03914 8.24455 7.41421 7.87886C7.78929 7.51316 8 7.01717 8 6.5V5.2H9.33333V6.5C9.33333 7.36195 8.98214 8.1886 8.35702 8.7981C7.7319 9.40759 6.88406 9.75 6 9.75C5.11595 9.75 4.2681 9.40759 3.64298 8.7981C3.01786 8.1886 2.66667 7.36195 2.66667 6.5V5.2H4Z" fill="white"/>
</svg>
